<?xml version="1.0" encoding="UTF-8"?>
<!DOCTYPE svg PUBLIC "-//W3C//DTD SVG 1.1//EN" "http://www.w3.org/Graphics/SVG/1.1/DTD/svg11.dtd">
<svg xmlns="http://www.w3.org/2000/svg" xml:space="preserve" width="164.996mm" height="43.0384mm" version="1.1" style="shape-rendering:geometricPrecision; text-rendering:geometricPrecision; image-rendering:optimizeQuality; fill-rule:evenodd; clip-rule:evenodd"
viewBox="0 0 17187 4483"
 xmlns:xlink="http://www.w3.org/1999/xlink">
 <defs>
  <style type="text/css">
   <![CDATA[
    .str1 {stroke:white;stroke-width:0}
    .str0 {stroke:black;stroke-width:156.249}
    .fil1 {fill:black}
    .fil0 {fill:white}
   ]]>
  </style>
 </defs>
 <g id="Capa_x0020_1">
  <g id="_270237344">
   <path class="fil0 str0" d="M1014 4405l1427 0 0 -237 -960 0 708 0c-111,-793 171,-1413 213,-1578 148,-581 -113,-950 -676,-1246 169,345 422,868 47,1333 -392,486 -813,1085 -759,1728z"/>
   <path class="fil0 str0" d="M1481 4062l-698 -2 698 2 0 343 -1403 0 0 -345c235,0 350,0 705,0 -1134,-2043 126,-3110 687,-3656 -831,1565 11,1932 11,3658z"/>
  </g>
  <g id="_270236744">
   <path class="fil1 str1" d="M17119 3731c-260,-79 -119,183 -303,352 -143,130 -345,121 -528,37 -451,-206 -368,-632 -368,-955 327,0 947,40 1212,-22 115,-491 -112,-1035 -683,-948 -461,70 -750,428 -750,925 -1,474 -36,918 494,1183 581,291 1051,-208 926,-572z"/>
   <path class="fil1 str1" d="M4579 3732c-65,184 -25,303 -212,404 -153,84 -378,40 -512,-42 -332,-203 -327,-445 -327,-929 1372,0 1235,89 1235,-286 0,-179 -5,-287 -86,-422 -131,-218 -400,-330 -726,-237 -262,74 -465,259 -556,482 -100,243 -120,634 -71,910 56,314 178,491 384,631 349,235 874,187 1019,-232 52,-151 69,-351 -148,-279z"/>
   <path class="fil1 str1" d="M8489 2261l0 1566c0,294 286,573 574,573l308 0c277,0 573,-288 573,-573 0,-311 30,-1409 -22,-1632 -245,-59 -198,22 -198,485 0,213 0,427 0,640 0,781 34,860 -639,860 -481,0 -375,-480 -375,-816 0,-326 40,-900 -22,-1169 -12,-3 -199,-71 -199,66z"/>
   <path class="fil1 str1" d="M13296 4400c275,0 467,31 689,-170 77,-70 193,-261 193,-403 0,-311 30,-1409 -22,-1632 -111,-26 -203,-78 -200,175l1 950c0,780 29,860 -639,860 -484,0 -375,-484 -375,-816 0,-326 41,-900 -22,-1169 -257,-61 -198,45 -198,596 0,242 0,485 0,727 0,251 -26,432 103,624 80,119 283,258 470,258z"/>
   <path class="fil1 str1" d="M6274 3606c-63,515 -712,762 -956,416 -112,-159 -2,-366 -251,-288 -95,312 233,785 795,618 526,-156 692,-733 606,-883 -36,-64 -512,-218 -593,-248 -198,-73 -431,-151 -619,-240 32,-491 692,-793 960,-431 117,157 -11,367 248,288 172,-626 -842,-955 -1286,-250 -67,105 -143,290 -133,445 14,218 895,344 1229,573z"/>
   <path class="fil1 str1" d="M8187 3733l-134 -18c-103,147 -23,284 -216,408 -222,142 -649,24 -812,-353 -70,-160 -35,-364 -35,-561 1,-281 -10,-628 429,-783 200,-71 375,-34 489,86 162,173 14,407 278,328 77,-250 -88,-441 -217,-543 -322,-256 -1223,-117 -1222,979 1,519 156,878 561,1049 555,234 988,-214 879,-592z"/>
   <path class="fil1 str1" d="M11466 2261l0 1566c0,288 286,573 573,573 246,0 508,56 375,-220 -826,0 -728,-41 -728,-1015l375 0c125,0 125,-220 0,-220l-375 0c0,-219 25,-549 -22,-750 -11,-3 -198,-71 -198,66z"/>
   <path class="fil1 str1" d="M14442 2261l0 2051c0,59 59,88 111,88 165,0 110,-363 110,-639 0,-253 -9,-522 0,-773 10,-309 280,-557 554,-589 153,-17 233,-27 181,-190 -125,-43 -317,-4 -432,47 -141,62 -191,115 -293,215l-25 -276c-15,-3 -206,-70 -206,66z"/>
   <path class="fil1 str1" d="M10231 2195c-52,223 -22,1321 -22,1632 0,287 295,573 573,573 73,0 419,36 419,-88 0,-264 -319,-43 -576,-173 -207,-105 -196,-271 -195,-555l0 -1124c0,-133 47,-360 -199,-265z"/>
   <path class="fil0 str1" d="M15920 2945l1014 0c0,-192 4,-318 -96,-433 -236,-274 -858,-58 -918,433z"/>
   <path class="fil0 str1" d="M3535 2938l1008 7c0,-199 30,-312 -89,-441 -236,-252 -818,-79 -919,434z"/>
  </g>
 </g>
</svg>
